<svg width="42" height="42" viewBox="0 0 42 42" xmlns="http://www.w3.org/2000/svg" xmlns:xlink="http://www.w3.org/1999/xlink"><title>gift</title><desc>Created using Figma</desc><use xlink:href="#a" transform="translate(1.34 12.9)" fill="#FFF"/><use xlink:href="#b" transform="translate(3.05 19.7)" fill="#FFF"/><use xlink:href="#c" transform="translate(15.02 12.9)" fill="#FFF"/><use xlink:href="#d" transform="translate(26.98 12.9)" fill="#FFF"/><use xlink:href="#e" transform="translate(21 1.8)" fill="#FFF"/><use xlink:href="#f" transform="translate(10.08 1.8)" fill="#FFF"/><defs><path id="a" d="M39.32 6.838v1a1 1 0 0 0 1-1h-1zM0 6.838h-1a1 1 0 0 0 1 1v-1zM0 0v-1a1 1 0 0 0-1 1h1zm39.32 0h1a1 1 0 0 0-1-1v1zm0 5.838H0v2h39.32v-2zM1 6.838V0h-2v6.838h2zM0 1h39.32v-2H0v2zm38.32-1v6.838h2V0h-2z"/><path id="b" d="M35.9 20.515v1a1 1 0 0 0 1-1h-1zm-35.9 0h-1a1 1 0 0 0 1 1v-1zM0 0v-1a1 1 0 0 0-1 1h1zm35.9 0h1a1 1 0 0 0-1-1v1zm0 19.515H0v2h35.9v-2zm-34.9 1V0h-2v20.515h2zM0 1h35.9v-2H0v2zm34.9-1v20.515h2V0h-2z"/><path id="c" d="M-1 0v27.353h2V0h-2z"/><path id="d" d="M1 27.353V0h-2v27.353h2z"/><path id="e" d="M0 10.922l-.971-.238a1 1 0 0 0 1.208 1.21L0 10.921zm3.626-9.67l.706.708h.001l-.707-.707zm6.045 0l-.707.708.707-.707zM8.964 6.59c-.266.265-.912.638-1.9 1.058-.953.405-2.065.79-3.156 1.135A72.13 72.13 0 0 1-.217 9.945l-.016.004-.004.001.237.972.238.971H.24l.005-.001.019-.005.07-.017.262-.067a75.064 75.064 0 0 0 3.916-1.115c1.117-.352 2.319-.77 3.335-1.2.982-.417 1.963-.916 2.532-1.485L8.964 6.589zM0 10.922l.971.237.002-.004.004-.016a27.393 27.393 0 0 1 .08-.317A72.085 72.085 0 0 1 2.14 7.013c.344-1.09.729-2.202 1.134-3.155.42-.988.792-1.633 1.057-1.898L2.92.545c-.57.569-1.069 1.55-1.486 2.53-.43 1.017-.848 2.218-1.2 3.336a75.005 75.005 0 0 0-1.2 4.248l-.004.018v.005l-.001.002.971.238zm4.333-8.963a3.273 3.273 0 0 1 4.63 0L10.379.547a5.273 5.273 0 0 0-7.46 0l1.415 1.413zm4.631.001a3.274 3.274 0 0 1 0 4.63l1.414 1.413a5.274 5.274 0 0 0 0-7.458L8.964 1.96z"/><path id="f" d="M10.923 10.922l-.238.971a1 1 0 0 0 1.21-1.209l-.972.238zm-3.626-9.67l-.707.708.707-.707zm-6.045 0l.707.708-.707-.707zm-.707 6.75c.569.57 1.55 1.069 2.531 1.486 1.016.43 2.218.848 3.336 1.2a75.237 75.237 0 0 0 4.248 1.199l.019.005h.005a.01.01 0 0 1 .001.001l.238-.971.237-.972h-.004l-.016-.005-.065-.016a71.015 71.015 0 0 1-1.168-.305 72.112 72.112 0 0 1-2.893-.842c-1.091-.345-2.203-.73-3.156-1.135-.988-.42-1.633-.792-1.899-1.058L.546 8.003zm10.378 2.92l.971-.238v-.002l-.001-.005-.005-.018-.017-.07-.067-.262a75.089 75.089 0 0 0-1.115-3.916c-.353-1.118-.77-2.32-1.201-3.335-.417-.982-.915-1.962-1.484-2.53L6.59 1.96c.265.265.638.91 1.057 1.898.405.953.79 2.064 1.135 3.156a72.208 72.208 0 0 1 1.148 4.06l.016.065.004.016.001.004.972-.237zM8.004.546a5.273 5.273 0 0 0-7.46 0L1.96 1.959a3.273 3.273 0 0 1 4.63 0L8.005.547zm-7.459 0a5.272 5.272 0 0 0 0 7.457l1.414-1.414a3.272 3.272 0 0 1 0-4.629L.545.545z"/></defs></svg>